<svg width="85" height="22" viewBox="0 0 85 22" fill="none" xmlns="http://www.w3.org/2000/svg">
<path d="M25.5781 9.99805L26.1172 10.6777L26.4277 11.0527C27.0293 11.7949 27.3301 12.5801 27.3301 13.4082C27.3301 14.2129 27.0645 14.918 26.5332 15.5234C25.8066 16.3555 24.8555 16.7715 23.6797 16.7715C22.7695 16.7715 22.0234 16.4902 21.4414 15.9277C20.8594 15.3691 20.5684 14.6523 20.5684 13.7773C20.5684 12.707 21.0215 11.8145 21.9277 11.0996C22.4082 10.7207 22.8516 10.5312 23.2578 10.5312C23.4688 10.5312 23.6406 10.5918 23.7734 10.7129C23.9062 10.834 23.9727 10.9902 23.9727 11.1816C23.9727 11.4395 23.8203 11.6621 23.5156 11.8496L23.0469 12.1367C22.7773 12.3047 22.5527 12.5391 22.373 12.8398C22.1934 13.1406 22.1035 13.4375 22.1035 13.7305C22.1035 14.1953 22.2598 14.5781 22.5723 14.8789C22.8887 15.1836 23.2891 15.3359 23.7734 15.3359C24.3086 15.3359 24.7734 15.1348 25.168 14.7324C25.5625 14.334 25.7598 13.8633 25.7598 13.3203C25.7598 12.9766 25.6797 12.6641 25.5195 12.3828C25.3594 12.1016 25.0137 11.666 24.4824 11.0762C24.1113 10.666 23.8457 10.3066 23.6855 9.99805H22.1035C21.5645 9.99805 21.2949 9.8125 21.2949 9.44141C21.2949 9.17188 21.3887 8.96484 21.5762 8.82031C21.7676 8.67188 22.0352 8.59766 22.3789 8.59766H23.3809C23.459 7.82422 23.8125 7.18555 24.4414 6.68164C25.0703 6.17383 25.8242 5.91992 26.7031 5.91992C27.3633 5.91992 27.9004 6.10156 28.3145 6.46484C28.7324 6.82812 28.9414 7.29883 28.9414 7.87695C28.9414 8.64648 28.6113 9.23633 27.9512 9.64648C27.5762 9.88086 26.9805 9.99805 26.1641 9.99805H25.5781ZM24.875 8.59766H26.2812C27.0742 8.59766 27.4707 8.36719 27.4707 7.90625C27.4707 7.72656 27.3887 7.58203 27.2246 7.47266C27.0645 7.36328 26.8496 7.30859 26.5801 7.30859C26.1582 7.30859 25.7734 7.43945 25.4258 7.70117C25.082 7.96289 24.8984 8.26172 24.875 8.59766ZM32.5859 12.7227H33.2656C33.5352 12.7227 33.7266 12.7637 33.8398 12.8457C33.9531 12.9238 34.0098 13.0547 34.0098 13.2383C34.0098 13.4766 33.9219 13.6641 33.7461 13.8008C33.5742 13.9336 33.332 14 33.0195 14H31.9707C31.6426 14 31.4238 13.873 31.3145 13.6191C31.0996 13.873 30.8301 14 30.5059 14H29.6504C29.3066 14 29.0215 13.8926 28.7949 13.6777C28.5684 13.4629 28.4551 13.1914 28.4551 12.8633C28.4551 12.6758 28.5059 12.457 28.6074 12.207L29.4043 10.25C29.627 9.70703 29.9316 9.43555 30.3184 9.43555C30.4863 9.43555 30.6289 9.49023 30.7461 9.59961C30.8633 9.70508 30.9219 9.83594 30.9219 9.99219C30.9219 10.1094 30.8906 10.2441 30.8281 10.3965L30.7637 10.5547L30.1484 12.0605L30.084 12.2363C30.0488 12.3379 30.0293 12.4141 30.0254 12.4648C30.0176 12.6406 30.1309 12.7285 30.3652 12.7285C30.8496 12.7285 31.1719 12.5332 31.332 12.1426L32.0645 10.3379C32.2832 9.79102 32.5918 9.51758 32.9902 9.51758C33.1543 9.51758 33.2949 9.57227 33.4121 9.68164C33.5293 9.79102 33.5879 9.92188 33.5879 10.0742C33.5879 10.1953 33.5371 10.3828 33.4355 10.6367L32.5859 12.7227ZM38.5742 12.7227H39.2773C39.7734 12.7227 40.0215 12.8965 40.0215 13.2441C40.0215 13.4824 39.9336 13.668 39.7578 13.8008C39.582 13.9336 39.3398 14 39.0312 14H37.8066C37.5684 14 37.3672 13.9277 37.2031 13.7832C37.043 13.6387 36.9629 13.457 36.9629 13.2383C36.9629 13.1055 37.0176 12.9062 37.127 12.6406L37.6426 11.3633C37.6973 11.2305 37.7266 11.123 37.7305 11.041C37.7344 10.9473 37.6953 10.8672 37.6133 10.8008C37.5352 10.7344 37.4336 10.7012 37.3086 10.7012C36.9062 10.7012 36.582 11.0039 36.3359 11.6094L35.6445 13.3086C35.4375 13.8242 35.1289 14.082 34.7188 14.082C34.5508 14.082 34.4082 14.0312 34.291 13.9297C34.1738 13.8281 34.1152 13.7031 34.1152 13.5547C34.1152 13.4453 34.1465 13.3145 34.209 13.1621L34.2734 13.0039L35.457 10.0859C35.6094 9.70703 35.8691 9.51758 36.2363 9.51758C36.5371 9.51758 36.752 9.65039 36.8809 9.91602C37.2988 9.5957 37.6973 9.43555 38.0762 9.43555C38.4434 9.43555 38.7461 9.54102 38.9844 9.75195C39.2227 9.96289 39.3418 10.2305 39.3418 10.5547C39.3418 10.7344 39.2988 10.9316 39.2129 11.1465L38.5742 12.7227ZM42.1953 11.1172L42.084 11.3867C41.9121 11.7734 41.668 11.9668 41.3516 11.9668C41.1914 11.9668 41.0469 11.9121 40.918 11.8027C40.793 11.6895 40.7305 11.5605 40.7305 11.416C40.7305 11.2793 40.7871 11.0977 40.9004 10.8711L41.6797 9.28906C41.8711 8.91016 42.1094 8.7207 42.3945 8.7207C42.5469 8.7207 42.6777 8.77148 42.7871 8.87305C42.8965 8.9707 42.9512 9.08789 42.9512 9.22461C42.9512 9.25977 42.9395 9.33594 42.916 9.45312C42.9004 9.53906 42.8926 9.61523 42.8926 9.68164C42.8926 9.92773 42.9844 10.1797 43.168 10.4375L43.502 10.9004C43.8418 11.373 44.0117 11.8301 44.0117 12.2715C44.0117 12.7637 43.8281 13.1758 43.4609 13.5078C43.0938 13.8359 42.6367 14 42.0898 14H40.8652C40.3691 14 40.1211 13.8281 40.1211 13.4844C40.1211 13.2461 40.209 13.0605 40.3848 12.9277C40.5605 12.791 40.8027 12.7227 41.1113 12.7227H41.791C42.334 12.7227 42.6055 12.5254 42.6055 12.1309C42.6055 11.9863 42.5547 11.8164 42.4531 11.6211L42.1953 11.1172ZM47.7969 14H46.0977C45.6094 14 45.2109 13.8281 44.9023 13.4844C44.5977 13.1406 44.4453 12.6953 44.4453 12.1484C44.4453 11.418 44.6973 10.7832 45.2012 10.2441C45.7051 9.70508 46.2969 9.43555 46.9766 9.43555C47.4375 9.43555 47.8125 9.56445 48.1016 9.82227C48.3906 10.0801 48.5352 10.416 48.5352 10.8301C48.5352 11.1191 48.4629 11.3574 48.3184 11.5449C48.1738 11.7285 47.9883 11.8203 47.7617 11.8203C47.4023 11.8203 47.2227 11.6523 47.2227 11.3164C47.2227 11.2656 47.2227 11.2227 47.2227 11.1875C47.2266 11.1445 47.2285 11.1035 47.2285 11.0645C47.2285 10.791 47.0938 10.6543 46.8242 10.6543C46.5703 10.6543 46.3379 10.7891 46.127 11.0586C45.9199 11.3281 45.8164 11.6289 45.8164 11.9609C45.8164 12.2383 45.9004 12.4355 46.0684 12.5527C46.2402 12.666 46.5293 12.7227 46.9355 12.7227H48.043C48.5391 12.7227 48.7871 12.8965 48.7871 13.2441C48.7871 13.4785 48.6973 13.6641 48.5176 13.8008C48.3418 13.9336 48.1016 14 47.7969 14ZM53.0117 12.7227H53.6562C54.1484 12.7227 54.3945 12.8945 54.3945 13.2383C54.3945 13.4766 54.3066 13.6641 54.1309 13.8008C53.9551 13.9336 53.7129 14 53.4043 14H52.6543C52.3184 14 52.0898 13.8691 51.9688 13.6074C51.6758 13.8691 51.3926 14 51.1191 14H50.4512C50.0215 14 49.6738 13.8477 49.4082 13.543C49.1465 13.2344 49.0156 12.832 49.0156 12.3359C49.0156 11.5859 49.2734 10.916 49.7891 10.3262C50.3086 9.73242 50.8945 9.43555 51.5469 9.43555C52.0469 9.43555 52.4121 9.60938 52.6426 9.95703C52.8379 9.66406 53.0938 9.51758 53.4102 9.51758C53.582 9.51758 53.7246 9.57227 53.8379 9.68164C53.9551 9.79102 54.0137 9.92578 54.0137 10.0859C54.0137 10.1953 53.9824 10.3262 53.9199 10.4785L53.8555 10.6367L53.0117 12.7227ZM50.8848 12.752H51.0312C51.3516 12.752 51.5645 12.6211 51.6699 12.3594L52.0801 11.3457C52.1348 11.2129 52.1621 11.1016 52.1621 11.0117C52.1621 10.9062 52.1094 10.8145 52.0039 10.7363C51.9023 10.6582 51.7793 10.6191 51.6348 10.6191C51.3496 10.6191 51.0723 10.7852 50.8027 11.1172C50.5332 11.4492 50.3984 11.793 50.3984 12.1484C50.3984 12.5508 50.5605 12.752 50.8848 12.752ZM56.0879 10.8008L55.8887 11.293C55.709 11.7305 55.4746 11.9492 55.1855 11.9492C55.0098 11.9492 54.8633 11.8965 54.7461 11.791C54.6289 11.6855 54.5703 11.5547 54.5703 11.3984C54.5703 11.3086 54.6133 11.1562 54.6992 10.9414L55.3613 9.30664C55.5215 8.91211 55.748 8.71484 56.041 8.71484C56.3301 8.71484 56.5078 8.85156 56.5742 9.125L56.6211 9.30664C56.6445 9.40039 56.6797 9.45898 56.7266 9.48242C56.7734 9.50586 56.8887 9.51758 57.0723 9.51758H58.4434C58.9551 9.51758 59.2109 9.69727 59.2109 10.0566C59.2109 10.5527 58.8867 10.8008 58.2383 10.8008L58.1738 10.8594C57.5527 11.4531 57.2422 11.9121 57.2422 12.2363C57.2422 12.5605 57.4219 12.7227 57.7812 12.7227H58.5195C59.0156 12.7227 59.2637 12.8945 59.2637 13.2383C59.2637 13.4805 59.1758 13.668 59 13.8008C58.8281 13.9336 58.5859 14 58.2734 14H57.125C56.7344 14 56.4141 13.8652 56.1641 13.5957C55.918 13.3262 55.7949 12.9766 55.7949 12.5469C55.7949 12.2734 55.8613 12.0078 55.9941 11.75C56.127 11.4922 56.3613 11.1758 56.6973 10.8008H56.0879ZM64.6602 9.99805L65.1992 10.6777L65.5098 11.0527C66.1113 11.7949 66.4121 12.5801 66.4121 13.4082C66.4121 14.2129 66.1465 14.918 65.6152 15.5234C64.8887 16.3555 63.9375 16.7715 62.7617 16.7715C61.8516 16.7715 61.1055 16.4902 60.5234 15.9277C59.9414 15.3691 59.6504 14.6523 59.6504 13.7773C59.6504 12.707 60.1035 11.8145 61.0098 11.0996C61.4902 10.7207 61.9336 10.5312 62.3398 10.5312C62.5508 10.5312 62.7227 10.5918 62.8555 10.7129C62.9883 10.834 63.0547 10.9902 63.0547 11.1816C63.0547 11.4395 62.9023 11.6621 62.5977 11.8496L62.1289 12.1367C61.8594 12.3047 61.6348 12.5391 61.4551 12.8398C61.2754 13.1406 61.1855 13.4375 61.1855 13.7305C61.1855 14.1953 61.3418 14.5781 61.6543 14.8789C61.9707 15.1836 62.3711 15.3359 62.8555 15.3359C63.3906 15.3359 63.8555 15.1348 64.25 14.7324C64.6445 14.334 64.8418 13.8633 64.8418 13.3203C64.8418 12.9766 64.7617 12.6641 64.6016 12.3828C64.4414 12.1016 64.0957 11.666 63.5645 11.0762C63.1934 10.666 62.9277 10.3066 62.7676 9.99805H61.1855C60.6465 9.99805 60.377 9.8125 60.377 9.44141C60.377 9.17188 60.4707 8.96484 60.6582 8.82031C60.8496 8.67188 61.1172 8.59766 61.4609 8.59766H62.4629C62.541 7.82422 62.8945 7.18555 63.5234 6.68164C64.1523 6.17383 64.9062 5.91992 65.7852 5.91992C66.4453 5.91992 66.9824 6.10156 67.3965 6.46484C67.8145 6.82812 68.0234 7.29883 68.0234 7.87695C68.0234 8.64648 67.6934 9.23633 67.0332 9.64648C66.6582 9.88086 66.0625 9.99805 65.2461 9.99805H64.6602ZM63.957 8.59766H65.3633C66.1562 8.59766 66.5527 8.36719 66.5527 7.90625C66.5527 7.72656 66.4707 7.58203 66.3066 7.47266C66.1465 7.36328 65.9316 7.30859 65.6621 7.30859C65.2402 7.30859 64.8555 7.43945 64.5078 7.70117C64.1641 7.96289 63.9805 8.26172 63.957 8.59766ZM70.25 9.43555C70.8164 9.43555 71.2812 9.61523 71.6445 9.97461C72.0117 10.334 72.1953 10.791 72.1953 11.3457C72.1953 11.7637 72.0996 12.1797 71.9082 12.5938C71.7168 13.0039 71.4688 13.332 71.1641 13.5781C70.9609 13.7383 70.75 13.8496 70.5312 13.9121C70.3164 13.9707 70.0137 14 69.623 14C68.9863 14 68.5566 13.9238 68.334 13.7715C67.8105 13.4121 67.5488 12.8809 67.5488 12.1777C67.5488 11.4355 67.8164 10.793 68.3516 10.25C68.8867 9.70703 69.5195 9.43555 70.25 9.43555ZM70.1094 10.6836C69.8203 10.6836 69.5566 10.8262 69.3184 11.1113C69.0801 11.3965 68.9609 11.7109 68.9609 12.0547C68.9609 12.5078 69.2148 12.7344 69.7227 12.7344C70.0195 12.7344 70.248 12.6426 70.4082 12.459C70.6738 12.1582 70.8066 11.8145 70.8066 11.4277C70.8066 11.2051 70.7422 11.0254 70.6133 10.8887C70.4844 10.752 70.3164 10.6836 70.1094 10.6836ZM76.8477 12.7227H77.5508C78.0469 12.7227 78.2949 12.8965 78.2949 13.2441C78.2949 13.4824 78.207 13.668 78.0312 13.8008C77.8555 13.9336 77.6133 14 77.3047 14H76.0801C75.8418 14 75.6406 13.9277 75.4766 13.7832C75.3164 13.6387 75.2363 13.457 75.2363 13.2383C75.2363 13.1055 75.291 12.9062 75.4004 12.6406L75.916 11.3633C75.9707 11.2305 76 11.123 76.0039 11.041C76.0078 10.9473 75.9688 10.8672 75.8867 10.8008C75.8086 10.7344 75.707 10.7012 75.582 10.7012C75.1797 10.7012 74.8555 11.0039 74.6094 11.6094L73.918 13.3086C73.7109 13.8242 73.4023 14.082 72.9922 14.082C72.8242 14.082 72.6816 14.0312 72.5645 13.9297C72.4473 13.8281 72.3887 13.7031 72.3887 13.5547C72.3887 13.4453 72.4199 13.3145 72.4824 13.1621L72.5469 13.0039L73.7305 10.0859C73.8828 9.70703 74.1426 9.51758 74.5098 9.51758C74.8105 9.51758 75.0254 9.65039 75.1543 9.91602C75.5723 9.5957 75.9707 9.43555 76.3496 9.43555C76.7168 9.43555 77.0195 9.54102 77.2578 9.75195C77.4961 9.96289 77.6152 10.2305 77.6152 10.5547C77.6152 10.7344 77.5723 10.9316 77.4863 11.1465L76.8477 12.7227ZM81.8633 14.2402H82.543C83.0391 14.2402 83.2871 14.4141 83.2871 14.7617C83.2871 15 83.1992 15.1855 83.0234 15.3184C82.8516 15.4512 82.6094 15.5176 82.2969 15.5176H81.3477C81.2344 15.8535 81.0293 16.2988 80.7324 16.8535C80.2168 17.8301 79.4668 18.3184 78.4824 18.3184C77.8848 18.3184 77.3828 18.1309 76.9766 17.7559C76.5703 17.3809 76.3672 16.916 76.3672 16.3613C76.3672 15.9746 76.4785 15.6133 76.7012 15.2773C76.9199 14.9453 77.209 14.6953 77.5684 14.5273C77.9824 14.3359 78.5938 14.2402 79.4023 14.2402H80.3574L80.5273 13.8184C80.2383 13.9395 79.9727 14 79.7305 14C79.3125 14 78.9727 13.8945 78.7109 13.6836C78.4531 13.4688 78.3242 13.1914 78.3242 12.8516C78.3242 12.6445 78.4082 12.334 78.5762 11.9199L79.2148 10.3438L79.2793 10.1797C79.4668 9.73828 79.7578 9.51758 80.1523 9.51758C80.3242 9.51758 80.4668 9.57227 80.5801 9.68164C80.6973 9.79102 80.7559 9.92969 80.7559 10.0977C80.7559 10.2109 80.7051 10.3945 80.6035 10.6484L80.0293 12.0488C79.9395 12.2754 79.8926 12.4219 79.8887 12.4883C79.877 12.6797 79.998 12.7754 80.252 12.7754C80.4316 12.7754 80.6152 12.7227 80.8027 12.6172C80.9902 12.5117 81.1094 12.3926 81.1602 12.2598L81.9453 10.3438L82.0039 10.1797C82.1875 9.73828 82.4785 9.51758 82.877 9.51758C83.0488 9.51758 83.1914 9.57422 83.3047 9.6875C83.4219 9.79688 83.4805 9.93359 83.4805 10.0977C83.4805 10.2109 83.4512 10.3418 83.3926 10.4902L83.3223 10.6484L81.8633 14.2402ZM79.9473 15.5176H79.127C78.2285 15.5176 77.7793 15.7988 77.7793 16.3613C77.7793 16.5605 77.8418 16.7207 77.9668 16.8418C78.0879 16.9629 78.252 17.0234 78.459 17.0234C78.7441 17.0234 78.9961 16.9121 79.2148 16.6895C79.4375 16.4668 79.6816 16.0762 79.9473 15.5176Z" fill="white"/>
<path d="M0.8 7.33333C0.358172 7.33333 0 6.97516 0 6.53333V5.66667C0 5.20833 0.1568 4.81611 0.4704 4.49C0.784 4.16389 1.16053 4.00056 1.6 4H14.4C14.84 4 15.2168 4.16333 15.5304 4.49C15.844 4.81667 16.0005 5.20889 16 5.66667V6.53333C16 6.97516 15.6418 7.33333 15.2 7.33333V7.33333C14.7582 7.33333 14.4 6.97516 14.4 6.53333V6.5C14.4 6.03976 14.0269 5.66667 13.5667 5.66667H2.43333C1.9731 5.66667 1.6 6.03976 1.6 6.5V6.53333C1.6 6.97516 1.24183 7.33333 0.8 7.33333V7.33333ZM5.63333 19C5.1731 19 4.8 18.6269 4.8 18.1667V18.1667C4.8 17.7064 4.4269 17.3333 3.96667 17.3333H1.6C1.16 17.3333 0.783467 17.1703 0.4704 16.8442C0.157333 16.5181 0.000533333 16.1256 0 15.6667V14.8C0 14.3582 0.358172 14 0.8 14V14C1.24183 14 1.6 14.3582 1.6 14.8V14.8333C1.6 15.2936 1.9731 15.6667 2.43333 15.6667H13.5667C14.0269 15.6667 14.4 15.2936 14.4 14.8333V14.8C14.4 14.3582 14.7582 14 15.2 14V14C15.6418 14 16 14.3582 16 14.8V15.6667C16 16.125 15.8435 16.5175 15.5304 16.8442C15.2173 17.1708 14.8405 17.3339 14.4 17.3333H12.0333C11.5731 17.3333 11.2 17.7064 11.2 18.1667V18.1667C11.2 18.6269 10.8269 19 10.3667 19H5.63333ZM3.28 11.75C2.69889 11.1447 2.69889 10.1887 3.28 9.58333L3.78285 9.05953C4.08299 8.74689 4.08299 8.25311 3.78285 7.94047V7.94047C3.46487 7.60924 2.93513 7.60924 2.61715 7.94047L1.53472 9.068C0.677173 9.96128 0.677173 11.3721 1.53472 12.2653L2.61715 13.3929C2.93513 13.7241 3.46487 13.7241 3.78285 13.3929V13.3929C4.08299 13.0802 4.08299 12.5864 3.78285 12.2738L3.28 11.75ZM12.72 9.58333C13.3011 10.1887 13.3011 11.1447 12.72 11.75L12.2172 12.2738C11.917 12.5864 11.917 13.0802 12.2172 13.3929V13.3929C12.5351 13.7241 13.0649 13.7241 13.3828 13.3929L14.4653 12.2653C15.3228 11.3721 15.3228 9.96128 14.4653 9.068L13.3828 7.94047C13.0649 7.60924 12.5351 7.60924 12.2172 7.94047V7.94047C11.917 8.25311 11.917 8.74689 12.2172 9.05953L12.72 9.58333Z" fill="#5300FA"/>
</svg>
