<svg width="344" height="79" viewBox="0 0 344 79" fill="none" xmlns="http://www.w3.org/2000/svg">
<path d="M4.35 17.4C1.94756 17.4 0 15.4524 0 13.05V8.7C0 6.3075 0.8526 4.2601 2.5578 2.5578C4.263 0.8555 6.3104 0.0029 8.7 0H78.3C80.6925 0 82.7413 0.8526 84.4465 2.5578C86.1517 4.263 87.0029 6.3104 87 8.7V13.05C87 15.4524 85.0524 17.4 82.65 17.4V17.4C80.2476 17.4 78.3 15.4524 78.3 13.05V13.05C78.3 10.6476 76.3524 8.7 73.95 8.7H13.05C10.6476 8.7 8.7 10.6476 8.7 13.05V13.05C8.7 15.4524 6.75244 17.4 4.35 17.4V17.4ZM30.45 78.3C28.0476 78.3 26.1 76.3524 26.1 73.95V73.95C26.1 71.5476 24.1524 69.6 21.75 69.6H8.7C6.3075 69.6 4.2601 68.7488 2.5578 67.0465C0.8555 65.3442 0.0029 63.2954 0 60.9V56.55C0 54.1476 1.94756 52.2 4.35 52.2V52.2C6.75244 52.2 8.7 54.1476 8.7 56.55V56.55C8.7 58.9524 10.6476 60.9 13.05 60.9H73.95C76.3524 60.9 78.3 58.9524 78.3 56.55V56.55C78.3 54.1476 80.2476 52.2 82.65 52.2V52.2C85.0524 52.2 87 54.1476 87 56.55V60.9C87 63.2925 86.1488 65.3413 84.4465 67.0465C82.7442 68.7517 80.6954 69.6029 78.3 69.6H65.25C62.8476 69.6 60.9 71.5476 60.9 73.95V73.95C60.9 76.3524 58.9524 78.3 56.55 78.3H30.45ZM17.835 40.455C14.7118 37.3318 14.7118 32.2682 17.835 29.145L20.445 26.535C22.1267 24.8533 22.1267 22.1267 20.445 20.445V20.445C18.7633 18.7633 16.0367 18.7633 14.355 20.445L8.7 26.1C3.89512 30.9049 3.89512 38.6951 8.7 43.5L14.355 49.155C16.0367 50.8367 18.7633 50.8367 20.445 49.155V49.155C22.1267 47.4733 22.1267 44.7467 20.445 43.065L17.835 40.455ZM69.165 29.145C72.2882 32.2682 72.2882 37.3318 69.165 40.455L66.555 43.065C64.8733 44.7467 64.8733 47.4733 66.555 49.155V49.155C68.2367 50.8367 70.9633 50.8367 72.645 49.155L78.3 43.5C83.1049 38.6951 83.1049 30.9049 78.3 26.1L72.645 20.445C70.9633 18.7633 68.2367 18.7633 66.555 20.445V20.445C64.8733 22.1267 64.8733 24.8533 66.555 26.535L69.165 29.145Z" fill="url(#paint0_linear_484_852)"/>
<path d="M320.315 35.62C320.945 34.5933 321.762 33.7883 322.765 33.205C323.792 32.6217 324.958 32.33 326.265 32.33V37.475H324.97C323.43 37.475 322.263 37.8367 321.47 38.56C320.7 39.2833 320.315 40.5433 320.315 42.34V52H315.415V32.61H320.315V35.62Z" fill="url(#paint1_linear_484_852)"/>
<path d="M285.32 41.84C285.32 39.6 285.76 37.6133 286.64 35.88C287.547 34.1467 288.76 32.8133 290.28 31.88C291.827 30.9467 293.547 30.48 295.44 30.48C297.093 30.48 298.533 30.8133 299.76 31.48C301.013 32.1467 302.013 32.9867 302.76 34V30.84H308.4V53H302.76V49.76C302.04 50.8 301.04 51.6667 299.76 52.36C298.507 53.0267 297.053 53.36 295.4 53.36C293.533 53.36 291.827 52.88 290.28 51.92C288.76 50.96 287.547 49.6133 286.64 47.88C285.76 46.12 285.32 44.1067 285.32 41.84ZM302.76 41.92C302.76 40.56 302.493 39.4 301.96 38.44C301.427 37.4533 300.707 36.7067 299.8 36.2C298.893 35.6667 297.92 35.4 296.88 35.4C295.84 35.4 294.88 35.6533 294 36.16C293.12 36.6667 292.4 37.4133 291.84 38.4C291.307 39.36 291.04 40.5067 291.04 41.84C291.04 43.1733 291.307 44.3467 291.84 45.36C292.4 46.3467 293.12 47.1067 294 47.64C294.907 48.1733 295.867 48.44 296.88 48.44C297.92 48.44 298.893 48.1867 299.8 47.68C300.707 47.1467 301.427 46.4 301.96 45.44C302.493 44.4533 302.76 43.28 302.76 41.92Z" fill="url(#paint2_linear_484_852)"/>
<path d="M258.485 42.535C258.485 39.955 259.01 37.705 260.06 35.785C261.11 33.835 262.565 32.335 264.425 31.285C266.285 30.205 268.415 29.665 270.815 29.665C273.905 29.665 276.455 30.445 278.465 32.005C280.505 33.535 281.87 35.695 282.56 38.485H275.765C275.405 37.405 274.79 36.565 273.92 35.965C273.08 35.335 272.03 35.02 270.77 35.02C268.97 35.02 267.545 35.68 266.495 37C265.445 38.29 264.92 40.135 264.92 42.535C264.92 44.905 265.445 46.75 266.495 48.07C267.545 49.36 268.97 50.005 270.77 50.005C273.32 50.005 274.985 48.865 275.765 46.585H282.56C281.87 49.285 280.505 51.43 278.465 53.02C276.425 54.61 273.875 55.405 270.815 55.405C268.415 55.405 266.285 54.88 264.425 53.83C262.565 52.75 261.11 51.25 260.06 49.33C259.01 47.38 258.485 45.115 258.485 42.535Z" fill="url(#paint3_linear_484_852)"/>
<path d="M241.05 57.45C238.783 57.45 236.75 57.05 234.95 56.25C233.15 55.4167 231.717 54.3 230.65 52.9C229.617 51.5 229.05 49.95 228.95 48.25H236C236.133 49.3167 236.65 50.2 237.55 50.9C238.483 51.6 239.633 51.95 241 51.95C242.333 51.95 243.367 51.6833 244.1 51.15C244.867 50.6167 245.25 49.9333 245.25 49.1C245.25 48.2 244.783 47.5333 243.85 47.1C242.95 46.6333 241.5 46.1333 239.5 45.6C237.433 45.1 235.733 44.5833 234.4 44.05C233.1 43.5167 231.967 42.7 231 41.6C230.067 40.5 229.6 39.0167 229.6 37.15C229.6 35.6167 230.033 34.2167 230.9 32.95C231.8 31.6833 233.067 30.6833 234.7 29.95C236.367 29.2167 238.317 28.85 240.55 28.85C243.85 28.85 246.483 29.6833 248.45 31.35C250.417 32.9833 251.5 35.2 251.7 38H245C244.9 36.9 244.433 36.0333 243.6 35.4C242.8 34.7333 241.717 34.4 240.35 34.4C239.083 34.4 238.1 34.6333 237.4 35.1C236.733 35.5667 236.4 36.2167 236.4 37.05C236.4 37.9833 236.867 38.7 237.8 39.2C238.733 39.6667 240.183 40.15 242.15 40.65C244.15 41.15 245.8 41.6667 247.1 42.2C248.4 42.7333 249.517 43.5667 250.45 44.7C251.417 45.8 251.917 47.2667 251.95 49.1C251.95 50.7 251.5 52.1333 250.6 53.4C249.733 54.6667 248.467 55.6667 246.8 56.4C245.167 57.1 243.25 57.45 241.05 57.45Z" fill="url(#paint4_linear_484_852)"/>
<path d="M209.68 27.09C213.31 27.09 216.243 28.245 218.48 30.555C220.717 32.8283 221.835 36.0183 221.835 40.125V58H214.135V41.17C214.135 38.75 213.53 36.8983 212.32 35.615C211.11 34.295 209.46 33.635 207.37 33.635C205.243 33.635 203.557 34.295 202.31 35.615C201.1 36.8983 200.495 38.75 200.495 41.17V58H192.795V27.53H200.495V31.325C201.522 30.005 202.823 28.9783 204.4 28.245C206.013 27.475 207.773 27.09 209.68 27.09Z" fill="url(#paint5_linear_484_852)"/>
<path d="M182.52 25.76V59H174.06V54.8C172.98 56.24 171.56 57.38 169.8 58.22C168.08 59.02 166.2 59.42 164.16 59.42C161.56 59.42 159.26 58.88 157.26 57.8C155.26 56.68 153.68 55.06 152.52 52.94C151.4 50.78 150.84 48.22 150.84 45.26V25.76H159.24V44.06C159.24 46.7 159.9 48.74 161.22 50.18C162.54 51.58 164.34 52.28 166.62 52.28C168.94 52.28 170.76 51.58 172.08 50.18C173.4 48.74 174.06 46.7 174.06 44.06V25.76H182.52Z" fill="url(#paint6_linear_484_852)"/>
<path d="M127.15 64.455C123.987 64.455 121.127 63.9133 118.57 62.83C116.057 61.7467 114.063 60.1867 112.59 58.15C111.117 56.1133 110.358 53.7083 110.315 50.935H120.065C120.195 52.7983 120.845 54.2717 122.015 55.355C123.228 56.4383 124.875 56.98 126.955 56.98C129.078 56.98 130.747 56.4817 131.96 55.485C133.173 54.445 133.78 53.1017 133.78 51.455C133.78 50.1117 133.368 49.0067 132.545 48.14C131.722 47.2733 130.682 46.6017 129.425 46.125C128.212 45.605 126.522 45.0417 124.355 44.435C121.408 43.5683 119.003 42.7233 117.14 41.9C115.32 41.0333 113.738 39.755 112.395 38.065C111.095 36.3317 110.445 34.035 110.445 31.175C110.445 28.4883 111.117 26.1483 112.46 24.155C113.803 22.1617 115.688 20.645 118.115 19.605C120.542 18.5217 123.315 17.98 126.435 17.98C131.115 17.98 134.907 19.1283 137.81 21.425C140.757 23.6783 142.382 26.8417 142.685 30.915H132.675C132.588 29.355 131.917 28.0767 130.66 27.08C129.447 26.04 127.822 25.52 125.785 25.52C124.008 25.52 122.578 25.975 121.495 26.885C120.455 27.795 119.935 29.1167 119.935 30.85C119.935 32.0633 120.325 33.0817 121.105 33.905C121.928 34.685 122.925 35.335 124.095 35.855C125.308 36.3317 126.998 36.895 129.165 37.545C132.112 38.4117 134.517 39.2783 136.38 40.145C138.243 41.0117 139.847 42.3117 141.19 44.045C142.533 45.7783 143.205 48.0533 143.205 50.87C143.205 53.2967 142.577 55.55 141.32 57.63C140.063 59.71 138.222 61.3783 135.795 62.635C133.368 63.8483 130.487 64.455 127.15 64.455Z" fill="url(#paint7_linear_484_852)"/>
<defs>
<linearGradient id="paint0_linear_484_852" x1="9.11704e-07" y1="6.39707" x2="87" y2="71.9029" gradientUnits="userSpaceOnUse">
<stop offset="0.215535" stop-color="#5300FA"/>
<stop offset="1" stop-color="#F800F0"/>
</linearGradient>
<linearGradient id="paint1_linear_484_852" x1="313" y1="40" x2="337" y2="40" gradientUnits="userSpaceOnUse">
<stop stop-color="#F4F4F4"/>
<stop offset="0.607786" stop-color="#7C7C7C"/>
</linearGradient>
<linearGradient id="paint2_linear_484_852" x1="284" y1="39" x2="344" y2="39" gradientUnits="userSpaceOnUse">
<stop stop-color="#F4F4F4"/>
<stop offset="0.607786" stop-color="#7C7C7C"/>
</linearGradient>
<linearGradient id="paint3_linear_484_852" x1="257" y1="39" x2="317" y2="39" gradientUnits="userSpaceOnUse">
<stop stop-color="#F4F4F4"/>
<stop offset="0.607786" stop-color="#7C7C7C"/>
</linearGradient>
<linearGradient id="paint4_linear_484_852" x1="227" y1="39" x2="287" y2="39" gradientUnits="userSpaceOnUse">
<stop stop-color="#F4F4F4"/>
<stop offset="0.607786" stop-color="#7C7C7C"/>
</linearGradient>
<linearGradient id="paint5_linear_484_852" x1="189" y1="39" x2="249" y2="39" gradientUnits="userSpaceOnUse">
<stop stop-color="#F4F4F4"/>
<stop offset="0.607786" stop-color="#7C7C7C"/>
</linearGradient>
<linearGradient id="paint6_linear_484_852" x1="147" y1="38" x2="207" y2="38" gradientUnits="userSpaceOnUse">
<stop stop-color="#F4F4F4"/>
<stop offset="0.607786" stop-color="#C9C9C9"/>
</linearGradient>
<linearGradient id="paint7_linear_484_852" x1="107" y1="41" x2="167" y2="41" gradientUnits="userSpaceOnUse">
<stop stop-color="#F4F4F4"/>
<stop offset="0.607786" stop-color="#7C7C7C"/>
</linearGradient>
</defs>
</svg>
